<?xml version="1.0" encoding="UTF-8" standalone="no"?>
<!-- Created with Inkscape (http://www.inkscape.org/) -->

<svg
   width="108.19141"
   height="71.204178"
   viewBox="0 0 28.625643 18.839438"
   version="1.1"
   id="svg5"
   xml:space="preserve"
   inkscape:version="1.2.1 (9c6d41e410, 2022-07-14)"
   sodipodi:docname="cookme__logo.svg"
   xmlns:inkscape="http://www.inkscape.org/namespaces/inkscape"
   xmlns:sodipodi="http://sodipodi.sourceforge.net/DTD/sodipodi-0.dtd"
   xmlns="http://www.w3.org/2000/svg"
   xmlns:svg="http://www.w3.org/2000/svg"><sodipodi:namedview
     id="namedview7"
     pagecolor="#ffffff"
     bordercolor="#000000"
     borderopacity="0.25"
     inkscape:showpageshadow="2"
     inkscape:pageopacity="0.0"
     inkscape:pagecheckerboard="0"
     inkscape:deskcolor="#d1d1d1"
     inkscape:document-units="mm"
     showgrid="false"
     inkscape:zoom="2.8284271"
     inkscape:cx="109.77833"
     inkscape:cy="-6.1871843"
     inkscape:window-width="1920"
     inkscape:window-height="1051"
     inkscape:window-x="-9"
     inkscape:window-y="-9"
     inkscape:window-maximized="1"
     inkscape:current-layer="g554"
     showguides="true" /><defs
     id="defs2" /><g
     inkscape:groupmode="layer"
     id="layer2"
     inkscape:label="favicon"
     transform="matrix(0.03686087,0,0,0.03708539,12.619169,33.068006)"
     style="display:none;stroke-width:27.0468"><g
       inkscape:groupmode="layer"
       id="layer3"
       inkscape:label="fruit 1"
       transform="translate(76.453337,-40.58634)"
       style="stroke-width:27.0468"><ellipse
         style="display:inline;fill:#ffffea;fill-opacity:1;fill-rule:evenodd;stroke:#f27405;stroke-width:2.70468;stroke-linecap:round;stroke-miterlimit:0;stroke-dasharray:none;stroke-opacity:1;paint-order:fill markers stroke"
         id="path371"
         cx="1140.5598"
         cy="-764.29327"
         rx="65.543076"
         ry="65.888802" /><path
         id="path1536"
         style="display:inline;fill:#f27405;fill-opacity:1;fill-rule:evenodd;stroke-width:21.6376;stroke-linecap:round;stroke-miterlimit:0;paint-order:fill markers stroke"
         inkscape:label="fruit"
         d="m 1140.2469,-825.16859 c -10.703,0.0898 -21.9075,2.73459 -34.478,12.34447 l 34.2248,43.71722 6.1531,-55.87668 c -1.9531,-0.13062 -3.9179,-0.20164 -5.8999,-0.18501 z m 8.8925,0.48524 -7.505,55.71133 0.4419,-0.3452 v 0.0196 l 3.1367,-2.46703 40.1826,-31.38 c -11.7117,-14.64642 -23.9208,-19.33523 -36.2536,-21.53874 z m -45.7631,13.08189 c -7.1381,6.18956 -13.4911,13.55827 -17.2822,24.77472 a 56.138735,56.138735 0 0 0 -2.8804,12.3579 l 55.0618,6.99906 -0.1143,-0.14367 0.1876,0.0238 z m 84.5432,10.19679 -44.4883,34.42736 55.1465,6.30504 a 56.138735,56.138735 0 0 0 -10.6582,-40.7324 z m -105.2918,29.56048 a 56.138735,56.138735 0 0 0 10.3105,40.82179 l 44.7797,-34.04702 z m 60.602,7.8729 35.4986,43.63817 a 56.138735,56.138735 0 0 0 19.637,-37.24373 z m -4.1812,1.58595 -43.5575,34.40203 a 56.138735,56.138735 0 0 0 0.2093,0.25063 l -0.3323,0.26562 c 11.8773,14.5124 24.1384,19.06257 36.4954,21.12584 l 2.2175,-18.0051 z m 2.9306,0.38964 -5.4255,48.57326 c 0.01,-6.9e-4 0.016,-10e-4 0.025,-0.002 l -0.8284,7.40626 c 12.4987,0.85734 25.4808,-0.72631 40.3986,-12.09022 l -9.1075,-11.67473 z" /></g></g><g
     inkscape:groupmode="layer"
     id="g554"
     inkscape:label="logo transparent"
     transform="matrix(0.06377439,0,0,0.06377439,37.633875,67.19379)"
     style="display:inline;stroke-width:15.6803"><g
       inkscape:groupmode="layer"
       id="g544"
       inkscape:label="eye"
       transform="translate(-1241.3933,-213.57303)"
       style="stroke-width:15.6803"><g
         inkscape:groupmode="layer"
         id="g540"
         inkscape:label="fruit"
         transform="rotate(6.7369729,145.43043,9776.8633)"
         style="display:inline;stroke-width:4.70409;stroke-dasharray:none"><path
           id="path536"
           style="display:inline;fill:#ffffea;fill-opacity:1;fill-rule:evenodd;stroke:#f27405;stroke-width:4.70409;stroke-linecap:round;stroke-miterlimit:0;stroke-dasharray:none;stroke-opacity:1;paint-order:fill markers stroke"
           inkscape:label="fruit"
           d="m -324.86793,-724.46962 c -9.33254,0.14805 -22.41446,0.78128 -37.2823,2.73896 -25.51695,3.35985 -51.5219,9.17497 -74.72021,21.32397 a 66.9801,64.898106 83.263026 0 0 -2.55786,18.45673 66.9801,64.898106 83.263026 0 0 36.185,59.98021 c 27.24498,-4.04705 53.45578,-9.0817 76.90515,-18.85391 1.66999,-0.66844 3.31595,-1.35505 4.9515,-2.04996 a 66.9801,64.898106 83.263026 0 0 11.81186,-38.59122 66.9801,64.898106 83.263026 0 0 -15.29314,-43.00478 z" /><path
           id="path538"
           style="display:inline;fill:#f27405;fill-opacity:1;fill-rule:evenodd;stroke-width:4.70409;stroke-linecap:round;stroke-miterlimit:0;stroke-dasharray:none;paint-order:fill markers stroke"
           inkscape:label="fruit"
           d="m -335.21527,-722.35549 c -7.73536,0.39396 -16.80965,1.11441 -26.70587,2.41329 -3.55041,0.46599 -7.1103,0.9801 -10.67118,1.54823 l -0.48421,33.79638 z m 3.90156,0.49403 -40.14225,39.40896 55.50514,-0.20773 a 56.138735,56.138735 0 0 0 -15.36289,-39.20123 z m -44.32752,3.97547 c -9.02337,1.52303 -18.03494,3.41844 -26.89241,5.86424 l 27.07793,27.48152 z m -30.02711,6.75256 c -7.77401,2.27136 -15.41419,4.9813 -22.82238,8.24084 a 56.138735,56.138735 0 0 0 -3.64577,20.06441 l 55.50256,0.49144 z m -26.74255,30.98053 a 56.138735,56.138735 0 0 0 15.02854,39.33042 l 40.47608,-39.06532 z m 116.61252,0.59119 -55.50514,0.11781 40.37273,39.1728 a 56.138735,56.138735 0 0 0 15.13241,-39.29061 z m -59.47131,2.18332 -39.22137,39.27461 a 56.138735,56.138735 0 0 0 21.0385,13.49013 c 5.92437,-0.9463 11.7865,-1.96455 17.5731,-3.08405 z m 2.9559,0.0434 0.31006,48.87454 c 13.10641,-2.6637 25.78916,-5.91964 37.82921,-10.22677 z" /></g><path
         style="display:inline;fill:#000000;fill-rule:evenodd;stroke-width:12.5442;stroke-linecap:round;stroke-miterlimit:0;paint-order:fill markers stroke"
         d="m -578.96591,-788.83789 c 0,0 34.52025,-54.38303 58.05185,-80.50944 16.20508,-17.9921 33.3888,-36.28942 54.23566,-47.3578 40.65306,-26.07295 90.71891,-21.99572 121.73714,-22.2466 20.35359,-0.24679 46.80382,-5.56012 46.80382,-5.56012 47.78179,-10.91746 65.66875,-46.46569 87.75004,-77.67365 -12.12007,38.55898 -38.98493,74.93443 -83.10032,92.38385 53.25485,2.01307 98.85865,-35.99048 126.40213,-70.54885 -16.48012,36.43216 -42.11936,54.29748 -71.32633,74.458 30.50776,0.10265 66.86299,-13.9402 89.40242,-29.90171 -21.90429,22.19824 -49.85953,38.41757 -77.29352,41.94582 -29.50021,3.64687 -88.81,-3.09827 -88.81,-3.09827 0,0 -22.20484,-3.83618 -51.9754,-3.45148 -27.87693,0.36023 -56.66263,3.42127 -82.77205,14.4164 -22.25487,9.3719 -42.01569,25.51516 -59.91616,42.65443 -13.04057,12.48594 -33.77196,43.05438 -33.77196,43.05438 68.01897,-14.72212 141.98558,-1.50764 202.53351,-18.20381 42.08972,-10.98639 74.82893,-30.70986 109.05318,-53.86227 -71.63119,91.46036 -183.36415,74.08423 -272.11506,80.76807 -31.60467,2.38015 -47.03059,8.65162 -74.88895,22.73305 z"
         id="path542"
         inkscape:label="lashes"
         sodipodi:nodetypes="csccccccccccssscccsc"
         transform="translate(1241.3933,213.57303)" /></g><text
       xml:space="preserve"
       style="font-size:99.5114px;font-family:'Century Gothic';-inkscape-font-specification:'Century Gothic';fill:#000000;fill-opacity:1;fill-rule:evenodd;stroke:none;stroke-width:31.3607;stroke-linecap:round;stroke-miterlimit:0;stroke-dasharray:none;stroke-opacity:1;paint-order:fill markers stroke"
       x="-579.35632"
       y="-975.20624"
       id="text548"><tspan
         sodipodi:role="line"
         id="tspan546"
         style="font-style:normal;font-variant:normal;font-weight:normal;font-stretch:normal;font-size:99.5114px;font-family:Elephant;-inkscape-font-specification:Elephant;fill:#000000;stroke-width:31.3607"
         x="-579.35632"
         y="-975.20624">cook</tspan></text><text
       xml:space="preserve"
       style="font-size:121.635px;font-family:'Century Gothic';-inkscape-font-specification:'Century Gothic';fill:#000000;fill-opacity:1;fill-rule:evenodd;stroke:none;stroke-width:31.3607;stroke-linecap:round;stroke-miterlimit:0;stroke-dasharray:none;stroke-opacity:1;paint-order:fill markers stroke"
       x="-316.10648"
       y="-765.68042"
       id="text552"><tspan
         sodipodi:role="line"
         id="tspan550"
         style="font-style:normal;font-variant:normal;font-weight:normal;font-stretch:normal;font-size:121.635px;font-family:Gabriola;-inkscape-font-specification:Gabriola;fill:#000000;stroke-width:31.3607"
         x="-316.10648"
         y="-765.68042">me...</tspan></text></g></svg>
